<mxfile host="app.diagrams.net" modified="2021-09-24T18:14:23.569Z" agent="5.0 (Windows NT 10.0; Win64; x64) AppleWebKit/537.36 (KHTML, like Gecko) Chrome/94.0.4606.54 Safari/537.36" etag="NI4crTDqbOG7mW1uIrgK" version="15.3.1" type="github">
  <diagram id="cavSCIH9xXLODqO2M7ue" name="Page-1">
    <mxGraphModel dx="1038" dy="579" grid="1" gridSize="10" guides="1" tooltips="1" connect="1" arrows="1" fold="1" page="1" pageScale="1" pageWidth="850" pageHeight="1100" math="0" shadow="0">
      <root>
        <mxCell id="0" />
        <mxCell id="1" parent="0" />
        <mxCell id="DBS1TzUVllmW2ItrRDHh-1" value="" style="rounded=0;whiteSpace=wrap;html=1;fillColor=#FCB5B5;" vertex="1" parent="1">
          <mxGeometry width="850" height="80" as="geometry" />
        </mxCell>
        <mxCell id="DBS1TzUVllmW2ItrRDHh-2" value="" style="rounded=0;whiteSpace=wrap;html=1;fillColor=#916953;" vertex="1" parent="1">
          <mxGeometry y="90" width="240" height="1010" as="geometry" />
        </mxCell>
        <mxCell id="DBS1TzUVllmW2ItrRDHh-5" value="" style="rounded=0;whiteSpace=wrap;html=1;fillColor=#FCB5B5;" vertex="1" parent="1">
          <mxGeometry x="250" y="90" width="600" height="230" as="geometry" />
        </mxCell>
      </root>
    </mxGraphModel>
  </diagram>
</mxfile>
